<svg xmlns="http://www.w3.org/2000/svg" width="503.022" height="272" viewBox="0 0 503.022 272">
  <g id="bg" transform="translate(131.53 16)">
    <rect id="Rectangle_88" data-name="Rectangle 88" width="502" height="272" transform="translate(-131 -16)" fill="#212121"/>
    <path id="Rectangle_270" data-name="Rectangle 270" d="M0,0H240a0,0,0,0,1,0,0V232a8,8,0,0,1-8,8H8a8,8,0,0,1-8-8V0A0,0,0,0,1,0,0Z" fill="#fff" style="mix-blend-mode: color;isolation: isolate"/>
    <rect id="Rectangle_310" data-name="Rectangle 310" width="88" height="92" transform="translate(76 164)" fill="#424242"/>
    <g id="도로" transform="translate(80 165)" opacity="0.26">
      <path id="Union_3" data-name="Union 3" d="M0,86.162l0-6.029,1.49,0,0,6.027ZM0,75l0-6.028,1.49,0,0,6.027ZM.019,63.833V57.8l1.494,0,0,6.029Zm.008-12.05V45.759l1.5,0-.011,6.03Zm0-33.708.009-6.023,1.5,0-.009,6.023ZM.035,6.023V0h1.5l0,6.026Z" transform="translate(39.915)" fill="#fff" stroke="rgba(0,0,0,0)" stroke-width="1"/>
      <path id="Union_2" data-name="Union 2" d="M18.889,18.93V0h5.44V18.93Zm47.223,0L66.11,0h5.447l0,18.928Zm-9.445,0V0h5.441V18.929Zm-18.889,0L37.776,0h5.447l0,18.928Zm-9.445,0V0h5.442V18.929Zm-18.887,0L9.444,0H14.89V18.929ZM0,18.929V0H5.442V18.929Zm75.557,0V0H81V18.928Zm-28.334,0V0h5.444V18.928Z" transform="translate(0 22.535)" fill="#fff" stroke="rgba(0,0,0,0)" stroke-width="1"/>
    </g>
    <rect id="Rectangle_311" data-name="Rectangle 311" width="88" height="92" transform="translate(164 76) rotate(180)" fill="#424242"/>
    <g id="도로-2" data-name="도로" transform="translate(160 75) rotate(180)" opacity="0.26">
      <path id="Union_3-2" data-name="Union 3" d="M0,86.162l0-6.029,1.49,0,0,6.027ZM0,75l0-6.028,1.49,0,0,6.027ZM.019,63.833V57.8l1.494,0,0,6.029Zm.008-12.05V45.759l1.5,0-.011,6.03Zm0-33.708.009-6.023,1.5,0-.009,6.023ZM.035,6.023V0h1.5l0,6.026Z" transform="translate(39.915)" fill="#fff" stroke="rgba(0,0,0,0)" stroke-width="1"/>
      <path id="Union_2-2" data-name="Union 2" d="M18.889,18.93V0h5.44V18.93Zm47.223,0L66.11,0h5.447l0,18.928Zm-9.445,0V0h5.441V18.929Zm-18.889,0L37.776,0h5.447l0,18.928Zm-9.445,0V0h5.442V18.929Zm-18.887,0L9.444,0H14.89V18.929ZM0,18.929V0H5.442V18.929Zm75.557,0V0H81V18.928Zm-28.334,0V0h5.444V18.928Z" transform="translate(0 22.535)" fill="#fff" stroke="rgba(0,0,0,0)" stroke-width="1"/>
    </g>
    <rect id="Rectangle_312" data-name="Rectangle 312" width="88" height="207" transform="translate(164 164) rotate(-90)" fill="#424242"/>
    <g id="도로-3" data-name="도로" transform="translate(165 160) rotate(-90)" opacity="0.26">
      <path id="Union_3-3" data-name="Union 3" d="M0,75.9,0,69.87l1.49,0,0,6.027ZM.019,63.833V57.8l1.494,0,0,6.029Zm.008-12.05V45.759l1.5,0-.011,6.03Zm0-33.708.009-6.023,1.5,0-.009,6.023ZM.035,6.023V0h1.5l0,6.026Z" transform="translate(39.915)" fill="#fff" stroke="rgba(0,0,0,0)" stroke-width="1"/>
      <path id="Union_4" data-name="Union 4" d="M.019,123.989v-3.92l1.494,0,0,3.92Zm0-9.958v-5.559l1.494,0,0,5.559Zm.008-11.58V96.427h1.5l-.011,6.029ZM0,90.406l0-6.029,1.49,0,0,6.027ZM.019,78.34V72.311l1.494,0,0,6.029ZM.027,66.29V60.265l1.5,0-.011,6.03ZM0,54.244l0-6.028,1.49,0,0,6.027ZM.019,42.179V36.149l1.494,0,0,6.029Zm.008-12.05V24.1l1.5,0-.011,6.03Zm0-12.054.009-6.023,1.5,0-.009,6.023ZM.035,6.023V0h1.5l0,6.026Z" transform="translate(39.915 82)" fill="#fff" stroke="rgba(0,0,0,0)" stroke-width="1"/>
      <path id="Union_2-3" data-name="Union 2" d="M18.889,18.93V0h5.44V18.93Zm47.223,0L66.11,0h5.447l0,18.928Zm-9.445,0V0h5.441V18.929Zm-18.889,0L37.776,0h5.447l0,18.928Zm-9.445,0V0h5.442V18.929Zm-18.887,0L9.444,0H14.89V18.929ZM0,18.929V0H5.442V18.929Zm75.557,0V0H81V18.928Zm-28.334,0V0h5.444V18.928Z" transform="translate(0 22.535)" fill="#fff" stroke="rgba(0,0,0,0)" stroke-width="1"/>
    </g>
    <rect id="Rectangle_313" data-name="Rectangle 313" width="88" height="207" transform="translate(76 76) rotate(90)" fill="#424242"/>
    <g id="도로-4" data-name="도로" transform="translate(75 80) rotate(90)" opacity="0.26">
      <path id="Union_5" data-name="Union 5" d="M.019,114.032v-5.559l1.494,0,0,5.559Zm.008-11.58V96.427h1.5l-.011,6.029ZM0,90.406l0-6.029,1.49,0,0,6.027ZM.019,78.34V72.311l1.494,0,0,6.029ZM.027,66.29V60.265l1.5,0-.011,6.03ZM0,54.244l0-6.028,1.49,0,0,6.027ZM.019,42.179V36.149l1.494,0,0,6.029Zm.008-12.05V24.1l1.5,0-.011,6.03Zm0-12.054.009-6.023,1.5,0-.009,6.023ZM.035,6.023V0h1.5l0,6.026Zm0-12.051v-5h1.5l0,5Z" transform="translate(41.452 195) rotate(180)" fill="#fff" stroke="rgba(0,0,0,0)" stroke-width="1"/>
      <path id="Union_3-4" data-name="Union 3" d="M0,75l0-6.029,1.491.005,0,6.026ZM.019,63.833V57.8l1.494,0,0,6.029Zm.007-12.05V45.759l1.5,0-.011,6.03Zm0-33.708.007-6.023,1.5,0-.008,6.023ZM.035,6.023V0h1.5l0,6.024Z" transform="translate(39.915)" fill="#fff" stroke="rgba(0,0,0,0)" stroke-width="1"/>
      <path id="Union_2-4" data-name="Union 2" d="M18.889,18.93V0h5.44V18.93Zm47.223,0L66.11,0h5.447l0,18.928Zm-9.445,0V0h5.441V18.929Zm-18.889,0L37.776,0h5.447l0,18.928Zm-9.445,0V0h5.442V18.929Zm-18.887,0L9.444,0H14.89V18.929ZM0,18.929V0H5.442V18.929Zm75.557,0V0H81V18.928Zm-28.334,0V0h5.444V18.928Z" transform="translate(0 22.535)" fill="#fff" stroke="rgba(0,0,0,0)" stroke-width="1"/>
    </g>
    <rect id="Rectangle_314" data-name="Rectangle 314" width="88" height="88" transform="translate(76 76)" fill="#424242"/>
  </g>
</svg>
