<svg xmlns="http://www.w3.org/2000/svg" width="40" height="40" viewBox="0 0 40 40">
  <g id="ico-40-lis" transform="translate(-289 -250.42)">
    <rect id="Rectangle_309" data-name="Rectangle 309" width="40" height="40" transform="translate(289 250.42)" fill="#fff" opacity="0"/>
    <g id="ico" transform="translate(290 254.897)">
      <line id="Line_105" data-name="Line 105" y2="3" transform="translate(34 29.523)" fill="none" stroke="#fff" stroke-linecap="round" stroke-linejoin="round" stroke-width="2"/>
      <line id="Line_104" data-name="Line 104" y2="3" transform="translate(4 29.523)" fill="none" stroke="#fff" stroke-linecap="round" stroke-linejoin="round" stroke-width="2"/>
      <g id="Group_480" data-name="Group 480" transform="translate(0 -1)">
        <rect id="Rectangle_285" data-name="Rectangle 285" width="36" height="10" rx="2" transform="translate(1 20.523)" fill="none" stroke="#fff" stroke-linejoin="round" stroke-width="2"/>
        <line id="Line_103" data-name="Line 103" x2="7" transform="translate(15 25.523)" fill="none" stroke="#fff" stroke-linecap="round" stroke-linejoin="round" stroke-width="2"/>
        <circle id="Ellipse_52" data-name="Ellipse 52" cx="2" cy="2" r="2" transform="translate(4 23.523)" fill="#fff"/>
        <circle id="Ellipse_53" data-name="Ellipse 53" cx="2" cy="2" r="2" transform="translate(9 23.523)" fill="#fff"/>
      </g>
      <rect id="Rectangle_286" data-name="Rectangle 286" width="32" height="20" rx="2" transform="translate(3 -0.477)" fill="none" stroke="#fff" stroke-linejoin="round" stroke-width="2"/>
      <g id="Group_479" data-name="Group 479" transform="translate(-1)">
        <g id="Ellipse_54" data-name="Ellipse 54" transform="translate(7 11.523)" fill="none" stroke="#fff" stroke-width="2">
          <circle cx="2.5" cy="2.5" r="2.5" stroke="none"/>
          <circle cx="2.5" cy="2.5" r="1.5" fill="none"/>
        </g>
        <g id="Ellipse_55" data-name="Ellipse 55" transform="translate(13 5.523)" fill="none" stroke="#fff" stroke-width="2">
          <circle cx="2.5" cy="2.5" r="2.5" stroke="none"/>
          <circle cx="2.5" cy="2.5" r="1.5" fill="none"/>
        </g>
        <g id="Ellipse_56" data-name="Ellipse 56" transform="translate(21 9.523)" fill="none" stroke="#fff" stroke-width="2">
          <circle cx="2.5" cy="2.5" r="2.5" stroke="none"/>
          <circle cx="2.5" cy="2.5" r="1.5" fill="none"/>
        </g>
        <g id="Ellipse_57" data-name="Ellipse 57" transform="translate(27 4.523)" fill="none" stroke="#fff" stroke-width="2">
          <circle cx="2.5" cy="2.5" r="2.5" stroke="none"/>
          <circle cx="2.5" cy="2.5" r="1.5" fill="none"/>
        </g>
        <path id="Path_333" data-name="Path 333" d="M-.5,5.5,4.166.775" transform="translate(10.5 8.023)" fill="none" stroke="#fff" stroke-width="2"/>
        <path id="Path_334" data-name="Path 334" d="M1.227.432l5.6,3.221" transform="translate(15.5 8.023)" fill="none" stroke="#fff" stroke-width="2"/>
        <path id="Path_335" data-name="Path 335" d="M1.227.432l5.6,3.221" transform="translate(23.283 12.596) rotate(-71)" fill="none" stroke="#fff" stroke-width="2"/>
      </g>
    </g>
  </g>
</svg>
