<svg xmlns="http://www.w3.org/2000/svg" width="36.1" height="20.35" viewBox="0 0 36.1 20.35">
    <g data-name="Group 50">
        <path data-name="Line 19" transform="translate(12.05 17.3)" style="fill:none;stroke:#fff;stroke-linejoin:round;stroke-width:1.6px" d="M15.75 0H0"/>
        <g data-name="Group 41">
            <g data-name="Group 54" transform="translate(.05 .05)">
                <path data-name="Path 25" d="M3.25 18.5h-1.5a.75.75 0 0 1-.75-.75V7.25A2.25 2.25 0 0 1 3.25 5h28.5a3.75 3.75 0 0 1 3.75 3.75v9a.75.75 0 0 1-.75.75H32.5" transform="translate(-.25 -1.25)" style="fill:none;stroke:#fff;stroke-linejoin:round;stroke-width:1.6px"/>
                <circle data-name="Ellipse 6" cx="2.25" cy="2.25" r="2.25" transform="translate(3 15)" style="fill:none;stroke:#fff;stroke-linejoin:round;stroke-width:1.6px"/>
                <circle data-name="Ellipse 7" cx="2.25" cy="2.25" r="2.25" transform="translate(7.5 15)" style="fill:none;stroke:#fff;stroke-linejoin:round;stroke-width:1.6px"/>
                <circle data-name="Ellipse 8" cx="2.25" cy="2.25" r="2.25" transform="translate(27.75 15)" style="fill:none;stroke:#fff;stroke-linejoin:round;stroke-width:1.6px"/>
                <path data-name="Path 26" d="m37 8 1.52 4.053A3 3 0 0 0 41.329 14H44.5" transform="translate(-9.25 -2)" style="fill:none;stroke:#fff;stroke-linejoin:round;stroke-width:1.6px"/>
                <path data-name="Line 20" transform="translate(22.5 12)" style="fill:none;stroke:#fff;stroke-linejoin:round;stroke-width:1.6px" d="M5.25 0H0"/>
                <path data-name="Line 21" transform="translate(.75 12)" style="fill:none;stroke:#fff;stroke-linejoin:round;stroke-width:1.6px" d="M15 0H0"/>
                <path data-name="Line 22" transform="translate(22.5 3.75)" style="fill:none;stroke:#fff;stroke-linejoin:round;stroke-width:1.6px" d="M0 0v13.5"/>
                <path data-name="Line 23" transform="translate(15.75 3.75)" style="fill:none;stroke:#fff;stroke-linejoin:round;stroke-width:1.6px" d="M0 0v13.5"/>
                <path data-name="Path 27" d="M17 4V1h10.5l3 3" transform="translate(-4.25 -.25)" style="fill:none;stroke:#fff;stroke-linejoin:round;stroke-width:1.6px"/>
            </g>
        </g>
    </g>
</svg>
