<svg id="ico-40-weather" xmlns="http://www.w3.org/2000/svg" xmlns:xlink="http://www.w3.org/1999/xlink" width="40" height="40" viewBox="0 0 40 40">
  <defs>
    <clipPath id="clip-path">
      <path id="Path_6" data-name="Path 6" d="M0,0H23.485V15.5L19.1,14.919,15.251,16.4l-.917,3.7-1.186,3.377H0Z" transform="translate(0 0)" fill="none" stroke="#ffffff" stroke-width="2"/>
    </clipPath>
  </defs>
  <rect id="Rectangle_8" data-name="Rectangle 8" width="40" height="40" fill="none"/>
  <g id="ico" transform="translate(0 6)">
    <g id="Mask_Group_1" data-name="Mask Group 1" transform="translate(0 0)" clip-path="url(#clip-path)">
      <path id="Path_1" data-name="Path 1" d="M19.59,13.13a6.459,6.459,0,1,1-6.459-6.459A6.459,6.459,0,0,1,19.59,13.13" transform="translate(0.374 0.374)" fill="none" stroke="#ffffff" stroke-width="2"/>
      <line id="Line_2" data-name="Line 2" y1="1.536" transform="translate(13.327 2.348)" fill="none" stroke="#ffffff" stroke-linecap="round" stroke-linejoin="round" stroke-width="2"/>
      <line id="Line_4" data-name="Line 4" x1="1.086" y1="1.086" transform="translate(5.565 5.564)" fill="none" stroke="#ffffff" stroke-linecap="round" stroke-linejoin="round" stroke-width="2"/>
      <line id="Line_6" data-name="Line 6" x1="1.536" transform="translate(2.348 13.327)" fill="none" stroke="#ffffff" stroke-linecap="round" stroke-linejoin="round" stroke-width="2"/>
      <line id="Line_8" data-name="Line 8" x1="1.086" y2="1.086" transform="translate(5.565 20.005)" fill="none" stroke="#ffffff" stroke-linecap="round" stroke-linejoin="round" stroke-width="2"/>
      <line id="Line_10" data-name="Line 10" y1="1.086" x2="1.086" transform="translate(20.005 5.564)" fill="none" stroke="#ffffff" stroke-linecap="round" stroke-linejoin="round" stroke-width="2"/>
    </g>
    <path id="Path_5" data-name="Path 5" d="M37.319,20.075a5.208,5.208,0,0,1-5.276,5.138H12.6a3.187,3.187,0,1,1,0-6.372c.1,0,.187,0,.283.012A4.26,4.26,0,0,1,12.6,17.32a4.53,4.53,0,0,1,4.59-4.471,4.629,4.629,0,0,1,2.891,1,6.051,6.051,0,0,1,12.1.024,5.56,5.56,0,0,1-.1,1.06A5.209,5.209,0,0,1,37.319,20.075Z" transform="translate(1.431 1.794)" fill="none" stroke="#ffffff" stroke-linecap="round" stroke-linejoin="round" stroke-width="2"/>
  </g>
</svg>
