<svg id="ico-40-weather" xmlns="http://www.w3.org/2000/svg" width="40" height="40" viewBox="0 0 40 40">
  <rect id="Rectangle_8" data-name="Rectangle 8" width="40" height="40" fill="none"/>
  <g id="ico" transform="translate(7.677 -42.658)">
    <path id="Path_380" data-name="Path 380" d="M39.325,20.617a5.516,5.516,0,0,1-5.653,5.369H12.833a3.334,3.334,0,1,1,0-6.658c.1,0,.2,0,.3.013a4.352,4.352,0,0,1-.3-1.6,4.8,4.8,0,0,1,4.919-4.671,5.041,5.041,0,0,1,3.1,1.049,6.33,6.33,0,0,1,6.482-6.13,6.326,6.326,0,0,1,6.482,6.155,5.669,5.669,0,0,1-.112,1.108A5.516,5.516,0,0,1,39.325,20.617Z" transform="translate(-12.002 38.672)" fill="none" stroke="#ffffff" stroke-linecap="round" stroke-linejoin="round" stroke-width="2"/>
    <g id="Group_545" data-name="Group 545" transform="translate(20.573 67.408)">
      <path id="Path_381" data-name="Path 381" d="M1.25,4.531h0Z" transform="translate(-0.5 -0.781)" fill="none" stroke="#ffffff" stroke-linecap="round" stroke-linejoin="round" stroke-width="2"/>
      <path id="Path_382" data-name="Path 382" d="M1.25,4.531h0Z" transform="translate(3 -0.781)" fill="none" stroke="#ffffff" stroke-linecap="round" stroke-linejoin="round" stroke-width="2"/>
      <line id="Line_145" data-name="Line 145" y1="5" x2="3" transform="translate(2.25 1.25)" fill="#fff" stroke="#ffffff" stroke-linecap="round" stroke-width="2"/>
      <line id="Line_147" data-name="Line 147" x1="3" y1="5" transform="translate(2.25 1.25)" fill="#fff" stroke="#ffffff" stroke-linecap="round" stroke-width="2"/>
    </g>
    <g id="Group_546" data-name="Group 546" transform="translate(12.573 72.408)">
      <path id="Path_381-2" data-name="Path 381" d="M1.25,4.531h0Z" transform="translate(-0.5 -0.781)" fill="none" stroke="#ffffff" stroke-linecap="round" stroke-linejoin="round" stroke-width="2"/>
      <path id="Path_382-2" data-name="Path 382" d="M1.25,4.531h0Z" transform="translate(3 -0.781)" fill="none" stroke="#ffffff" stroke-linecap="round" stroke-linejoin="round" stroke-width="2"/>
      <line id="Line_145-2" data-name="Line 145" y1="5" x2="3" transform="translate(2.25 1.25)" fill="#fff" stroke="#ffffff" stroke-linecap="round" stroke-width="2"/>
      <line id="Line_147-2" data-name="Line 147" x1="3" y1="5" transform="translate(2.25 1.25)" fill="#fff" stroke="#ffffff" stroke-linecap="round" stroke-width="2"/>
    </g>
    <g id="Group_547" data-name="Group 547" transform="translate(-8.927 67.658)">
      <line id="Line_136" data-name="Line 136" x1="2" y2="3" transform="translate(12.25 2)" fill="#ffffff" stroke="#ffffff" stroke-linecap="round" stroke-width="2"/>
      <line id="Line_141" data-name="Line 141" x1="2" y2="3" transform="translate(13.25 8)" fill="#ffffff" stroke="#ffffff" stroke-linecap="round" stroke-width="2"/>
      <line id="Line_139" data-name="Line 139" x1="2" y2="3" transform="translate(18.25 2)" fill="#ffffff" stroke="#ffffff" stroke-linecap="round" stroke-width="2"/>
      <line id="Line_137" data-name="Line 137" x1="2" y2="3" transform="translate(6.25 2)" fill="#ffffff" stroke="#ffffff" stroke-linecap="round" stroke-width="2"/>
      <line id="Line_142" data-name="Line 142" x1="2" y2="3" transform="translate(7.25 8)" fill="#ffffff" stroke="#ffffff" stroke-linecap="round" stroke-width="2"/>
    </g>
  </g>
</svg>
