<svg xmlns="http://www.w3.org/2000/svg" width="15.805" height="32.392" viewBox="0 0 15.805 32.392">
    <g data-name="Group 37">
        <g data-name="Group 55">
            <path data-name="Path 19" d="M7.873 19.792v3.06a4.278 4.278 0 0 0 1.455 2.909l4.364 4.364 1.455 6.545" transform="translate(-3.21 -5.325)" style="stroke-linecap:round;stroke-linejoin:round;fill:none;stroke:#fff;stroke-width:1.6px"/>
            <path data-name="Line 15" transform="translate(3.936 22.105)" style="stroke-linecap:round;stroke-linejoin:round;fill:none;stroke:#fff;stroke-width:1.6px" d="M0 9.241 3.85 0"/>
            <path data-name="Line 16" transform="translate(1.027 19.542)" style="stroke-linecap:round;stroke-linejoin:round;fill:none;stroke:#fff;stroke-width:1.6px" d="M4.333 0 0 11.804"/>
            <path data-name="Path 20" d="M11.418 1a2.545 2.545 0 0 0-2.545 2.545v.727a2.545 2.545 0 0 0 5.091 0v-.727A2.545 2.545 0 0 0 11.418 1z" transform="translate(-3.483 -.2)" style="stroke-miterlimit:10;fill:none;stroke:#fff;stroke-width:1.6px"/>
            <path data-name="Line 17" transform="translate(9.754 13.732)" style="stroke-linecap:round;stroke-linejoin:round;fill:none;stroke:#fff;stroke-width:1.6px" d="m0 0 4.364 3.796"/>
            <path data-name="Path 21" d="m16.993 34.48-1.469-8-3.651-5.091v-7.273c0-1.251-.871-1.742-2.182-2.182-.987-.331-2.8-.224-3.315.61s-2.5 5.208-2.5 5.208v4.131" transform="translate(-2.119 -3.134)" style="stroke-linecap:round;stroke-linejoin:round;fill:none;stroke:#fff;stroke-width:1.6px"/>
        </g>
    </g>
</svg>
