<svg xmlns="http://www.w3.org/2000/svg" width="31.661" height="19.478" viewBox="0 0 31.661 19.478">
    <g data-name="Group 49">
        <g data-name="Group 53" transform="translate(-.17 -1.685)">
            <circle data-name="Ellipse 4" cx="2.909" cy="2.909" r="2.909" transform="translate(22.303 14.545)" style="stroke-miterlimit:10;fill:none;stroke:#fff;stroke-width:1.6px"/>
            <path data-name="Line 18" transform="translate(20.364 17.455)" style="stroke-miterlimit:10;fill:none;stroke:#fff;stroke-width:1.6px" d="M0 0h1.939"/>
            <path data-name="Path 22" d="M15.758 39.775h2.909v-5.519a1.388 1.388 0 0 0-.109-.538l-2.6-5.292a1.517 1.517 0 0 0-1.263-.9L8 26.885" transform="translate(12.364 -22.321)" style="stroke-linecap:round;stroke-linejoin:round;fill:none;stroke:#fff;stroke-width:1.6px"/>
            <circle data-name="Ellipse 5" cx="2.909" cy="2.909" r="2.909" transform="translate(4.848 14.545)" style="stroke-miterlimit:10;fill:none;stroke:#fff;stroke-width:1.6px"/>
            <path data-name="Path 23" d="M105.7 22.969h9.7V8H96v14.969h3.879" transform="translate(-95.03 -5.514)" style="stroke-linecap:round;stroke-linejoin:round;fill:none;stroke:#fff;stroke-width:1.6px"/>
            <path data-name="Path 24" d="m43.879 61.563-3.184-.486L40 58.489" transform="translate(-16.727 -50.446)" style="stroke-linecap:round;stroke-linejoin:round;fill:none;stroke:#fff;stroke-width:1.6px"/>
        </g>
    </g>
</svg>
