<svg xmlns="http://www.w3.org/2000/svg" width="20" height="20" viewBox="0 0 20 20">
    <g transform="translate(1.5 .914)" data-name="Group 14">
        <path data-name="Path 8" d="m11.3 16.949-.964-.891a1.832 1.832 0 0 0-2.528.028L6.863 17l-2.431-1.164.08-1.327a1.9 1.9 0 0 0-1.6-2l-1.287-.187-.627-2.67 1.065-.763A1.932 1.932 0 0 0 2.6 6.357l-.66-1.145 1.649-2.166 1.247.375A1.853 1.853 0 0 0 7.1 2.273l.463-1.243L10.249 1l.491 1.231a1.851 1.851 0 0 0 2.29 1.1l1.239-.4 1.7 2.127-.635 1.161a1.933 1.933 0 0 0 .59 2.515L17 9.466l-.568 2.684-1.282.215a1.9 1.9 0 0 0-1.554 2.04l.109 1.325z" transform="translate(-.5 .086)" style="fill:none;stroke:#E94609;stroke-linecap:round;stroke-linejoin:round;stroke-width:1.6px"/>
        <circle data-name="Ellipse 2" cx="2.5" cy="2.5" r="2.5" transform="translate(6 6.586)" style="fill:none;stroke:#E94609;stroke-linecap:round;stroke-linejoin:round;stroke-width:1.6px"/>
    </g>
</svg>
