<svg id="ico-20-bike" xmlns="http://www.w3.org/2000/svg" width="32" height="32" viewBox="0 0 32 32">
  <rect id="Rectangle_80" data-name="Rectangle 80" width="32" height="32" fill="#bdbdbd" opacity="0"/>
  <path id="Path_152" data-name="Path 152" d="M4.8,18.134A1.333,1.333,0,1,1,3.468,16.8,1.332,1.332,0,0,1,4.8,18.134M3.466,14.666a3.467,3.467,0,1,0,3.468,3.468,3.467,3.467,0,0,0-3.468-3.468m22.668,3.468A1.333,1.333,0,1,1,24.8,16.8a1.332,1.332,0,0,1,1.332,1.334M24.8,14.666a3.467,3.467,0,1,0,3.468,3.468A3.467,3.467,0,0,0,24.8,14.666M27.794,9.8A9.322,9.322,0,0,1,32,17.6a.534.534,0,0,1-.532.532h-1.6a5.067,5.067,0,0,0-10.134,0H8.536A5.068,5.068,0,0,0,3.47,13.066a5.225,5.225,0,0,0-1.022.1,1.066,1.066,0,1,1-.43-2.088,7.281,7.281,0,0,1,3.492.146l3.034-6.52-1.4.586A.537.537,0,0,1,6.4,4.8V.534A.519.519,0,0,1,6.642.09a.518.518,0,0,1,.5-.048L11.074,1.68a1.068,1.068,0,0,1,.566,1.43l-.494,1.06a15.883,15.883,0,0,0-.8,11.83H14.67A2.938,2.938,0,0,0,17.6,13.066v-3.2h9.6a2.74,2.74,0,0,0,.592-.066M17.6,8.266a1.067,1.067,0,1,1,0-2.134h9.6a1.067,1.067,0,1,1,0,2.134Z" transform="translate(0 4.8)" fill="#bdbdbd" fill-rule="evenodd"/>
</svg>
