<svg id="ico-20-bus" xmlns="http://www.w3.org/2000/svg" width="32" height="32" viewBox="0 0 32 32">
  <rect id="Rectangle_80" data-name="Rectangle 80" width="32" height="32" fill="#bdbdbd" opacity="0"/>
  <path id="Path_151" data-name="Path 151" d="M25.6,15.466a.8.8,0,1,1-.8-.8.8.8,0,0,1,.8.8m-.8-2.4a2.4,2.4,0,1,0,2.4,2.4,2.4,2.4,0,0,0-2.4-2.4M8,15.466a.8.8,0,1,1-.8-.8.8.8,0,0,1,.8.8m-.8-2.4a2.4,2.4,0,1,0,2.4,2.4,2.4,2.4,0,0,0-2.4-2.4M32,3.2A3.206,3.206,0,0,0,28.8,0H4.432a3.165,3.165,0,0,0-3.1,2.424L.318,6.458A10.181,10.181,0,0,0,0,9.046v4.82a1.6,1.6,0,0,0,1.6,1.6H3.2a4,4,0,1,1,8,0h9.6a4,4,0,1,1,8,0h1.6a1.6,1.6,0,0,0,1.6-1.6ZM9.066,2.132A.267.267,0,0,0,8.8,2.4V5.066a.267.267,0,0,0,.266.266H12.6a.267.267,0,0,0,.266-.266V2.4a.267.267,0,0,0-.266-.266Zm5.668,0a.266.266,0,0,0-.266.266V5.066a.266.266,0,0,0,.266.266h3.532a.266.266,0,0,0,.266-.266V2.4a.266.266,0,0,0-.266-.266Zm5.666,0a.266.266,0,0,0-.266.266V5.066a.266.266,0,0,0,.266.266h3.534a.267.267,0,0,0,.266-.266V2.4a.267.267,0,0,0-.266-.266Zm9.466,1.052A1.069,1.069,0,0,0,28.8,2.132H26.066A.267.267,0,0,0,25.8,2.4V5.066a.268.268,0,0,0,.268.266H29.6a.268.268,0,0,0,.266-.256ZM4.432,2.132A1.033,1.033,0,0,0,3.4,2.94L2.78,5.408a.534.534,0,0,0,.712.626,10.13,10.13,0,0,1,3.45-.7A.266.266,0,0,0,7.2,5.068V2.4a.267.267,0,0,0-.266-.266Z" transform="translate(0 7)" fill="#bdbdbd" fill-rule="evenodd"/>
</svg>
