<svg id="ico-20-truck" xmlns="http://www.w3.org/2000/svg" width="32" height="32" viewBox="0 0 32 32">
  <rect id="Rectangle_80" data-name="Rectangle 80" width="32" height="32" fill="#bdbdbd" opacity="0"/>
  <path id="Path_150" data-name="Path 150" d="M10.666,18.4a1.333,1.333,0,1,1-1.332-1.334A1.333,1.333,0,0,1,10.666,18.4M9.334,14.934A3.466,3.466,0,1,0,12.8,18.4a3.466,3.466,0,0,0-3.468-3.466m15.2,3.466A1.333,1.333,0,1,1,23.2,17.066,1.334,1.334,0,0,1,24.532,18.4M23.2,14.934A3.466,3.466,0,1,0,26.666,18.4,3.465,3.465,0,0,0,23.2,14.934M7.468,4.266a5.351,5.351,0,0,0-5.3,4.74A.537.537,0,0,0,2.7,9.6a1.872,1.872,0,0,0,.968-.246A10.366,10.366,0,0,1,8.8,8h1.332a.535.535,0,0,0,.534-.534V4.8a.535.535,0,0,0-.534-.534Zm4.266-2.132A1.071,1.071,0,0,1,12.8,3.2V14.706A5.067,5.067,0,0,0,4.33,17.6H3.2A3.207,3.207,0,0,1,0,14.4V9.6A7.484,7.484,0,0,1,7.468,2.134Zm2.666,14.4A1.07,1.07,0,0,0,15.468,17.6H18.2a5.068,5.068,0,0,1,10.008,0h2.73A1.068,1.068,0,0,0,32,16.534V1.066A1.068,1.068,0,0,0,30.934,0H15.468A1.07,1.07,0,0,0,14.4,1.066Z" transform="translate(0 4.8)" fill="#bdbdbd" fill-rule="evenodd"/>
</svg>
