<svg id="ico-20-car" xmlns="http://www.w3.org/2000/svg" width="32" height="32" viewBox="0 0 32 32">
  <rect id="Rectangle_80" data-name="Rectangle 80" width="32" height="32" fill="#bdbdbd" opacity="0"/>
  <path id="Path_149" data-name="Path 149" d="M9.334,13.6A1.333,1.333,0,1,1,8,12.266,1.335,1.335,0,0,1,9.334,13.6M8,10.4a3.2,3.2,0,1,0,3.2,3.2A3.2,3.2,0,0,0,8,10.4m17.336,3.2A1.334,1.334,0,1,1,24,12.266,1.335,1.335,0,0,1,25.334,13.6M24,10.4a3.2,3.2,0,1,0,3.2,3.2A3.2,3.2,0,0,0,24,10.4M16.068,1.864a6.381,6.381,0,0,0-4.714,1.954l-.87.87a.534.534,0,0,0,.378.912L18,5.6a.532.532,0,0,0,.534-.532V2.4A.535.535,0,0,0,18,1.864Zm4.388.042a.533.533,0,0,0-.59.532V5.066A.535.535,0,0,0,20.4,5.6l4.474,0a.533.533,0,0,0,.376-.91L24.38,3.82a6.334,6.334,0,0,0-3.924-1.914M10.034,2.5A8.248,8.248,0,0,1,16.068,0h3.6A8.239,8.239,0,0,1,25.7,2.5l3.1,3.1A3.209,3.209,0,0,1,32,8.8v1.6a3.207,3.207,0,0,1-3.2,3.2,4.8,4.8,0,0,0-9.6,0H12.8a4.8,4.8,0,0,0-9.6,0A3.207,3.207,0,0,1,0,10.4V9.412A3.184,3.184,0,0,1,2.714,6.248l4.22-.65Z" transform="translate(0 8)" fill="#bdbdbd" fill-rule="evenodd"/>
</svg>
